<svg width="15" height="20" viewBox="0 0 15 20" fill="none" xmlns="http://www.w3.org/2000/svg">
<path d="M7.5 0V5C7.5 5.56832 7.73705 6.11337 8.15901 6.51523C8.58097 6.91709 9.15326 7.14286 9.75 7.14286H15V17.8571C15 18.4255 14.7629 18.9705 14.341 19.3724C13.919 19.7742 13.3467 20 12.75 20H2.25C1.65326 20 1.08097 19.7742 0.65901 19.3724C0.237053 18.9705 0 18.4255 0 17.8571V2.14286C0 1.57454 0.237053 1.02949 0.65901 0.627628C1.08097 0.225765 1.65326 0 2.25 0H7.5ZM9 0.357143V5C9 5.18944 9.07902 5.37112 9.21967 5.50508C9.36032 5.63903 9.55109 5.71429 9.75 5.71429H14.625L9 0.357143Z" fill="#699BF7"/>
</svg>
